<?xml version="1.0" encoding="UTF-8" standalone="no" ?>
<!DOCTYPE svg PUBLIC "-//W3C//DTD SVG 1.1//EN" "http://www.w3.org/Graphics/SVG/1.1/DTD/svg11.dtd">
<svg xmlns="http://www.w3.org/2000/svg" xmlns:xlink="http://www.w3.org/1999/xlink" version="1.1" width="1080" height="1080" viewBox="0 0 1080 1080" xml:space="preserve">
<desc>Created with Fabric.js 5.2.4</desc>
<defs>
</defs>
<g transform="matrix(1 0 0 1 540 540)" id="b70c4786-743c-43ef-ae78-d69d6b5baa97"  >
</g>
<g transform="matrix(1 0 0 1 540 540)" id="ad485c2a-b7e8-4c25-9e27-e31ff61a9ca1"  >
<rect style="stroke: none; stroke-width: 1; stroke-dasharray: none; stroke-linecap: butt; stroke-dashoffset: 0; stroke-linejoin: miter; stroke-miterlimit: 4; fill: rgb(255,255,255); fill-rule: nonzero; opacity: 1; visibility: hidden;" vector-effect="non-scaling-stroke"  x="-540" y="-540" rx="0" ry="0" width="1080" height="1080" />
</g>
<g transform="matrix(1 0 0 1 540 540)"  >
<g style="" vector-effect="non-scaling-stroke"   >
		<g transform="matrix(1 0 0 1 0 0)"  >
<path style="stroke: none; stroke-width: 1; stroke-dasharray: none; stroke-linecap: butt; stroke-dashoffset: 0; stroke-linejoin: miter; stroke-miterlimit: 4; fill: rgb(0,0,0); fill-rule: nonzero; opacity: 1;" vector-effect="non-scaling-stroke"  transform=" translate(-134.73, -41.71)" d="M 18.792 36.36 C 16.56 36.36 14.52 36.036 12.672 35.388 C 10.824 34.716 9.228 33.792 7.884 32.616 C 6.54 31.44 5.496 30.06 4.752 28.476 C 4.008 26.892 3.636 25.164 3.636 23.292 C 3.636 21.42 4.008 19.692 4.752 18.108 C 5.496 16.524 6.54 15.144 7.884 13.968 C 9.252 12.792 10.848 11.88 12.672 11.232 C 14.52 10.56 16.548 10.224 18.756 10.224 C 20.964 10.224 22.992 10.56 24.84 11.232 C 26.688 11.88 28.284 12.792 29.628 13.968 C 30.972 15.144 32.016 16.524 32.76 18.108 C 33.504 19.692 33.876 21.42 33.876 23.292 C 33.876 25.164 33.504 26.892 32.76 28.476 C 32.016 30.06 30.972 31.44 29.628 32.616 C 28.284 33.792 26.688 34.716 24.84 35.388 C 22.992 36.036 20.976 36.36 18.792 36.36 Z M 18.756 30.6 C 20.052 30.6 21.24 30.42 22.32 30.06 C 23.424 29.676 24.372 29.16 25.164 28.512 C 25.956 27.84 26.568 27.06 27 26.172 C 27.432 25.284 27.648 24.324 27.648 23.292 C 27.648 22.26 27.432 21.3 27 20.412 C 26.568 19.524 25.956 18.756 25.164 18.108 C 24.372 17.436 23.424 16.92 22.32 16.56 C 21.24 16.176 20.052 15.984 18.756 15.984 C 17.46 15.984 16.272 16.176 15.192 16.56 C 14.112 16.92 13.164 17.424 12.348 18.072 C 11.556 18.72 10.944 19.488 10.512 20.376 C 10.104 21.264 9.9 22.236 9.9 23.292 C 9.9 24.324 10.104 25.296 10.512 26.208 C 10.944 27.096 11.556 27.864 12.348 28.512 C 13.164 29.16 14.112 29.676 15.192 30.06 C 16.272 30.42 17.46 30.6 18.756 30.6 Z M 22.392 9.072 L 14.22 6.264 L 16.2 2.052 L 23.724 6.192 L 22.392 9.072 Z M 42.8397 36 L 42.8397 10.8 L 56.9517 10.8 C 58.6077 10.8 60.0957 11.16 61.4157 11.88 C 62.7597 12.6 63.8157 13.584 64.5837 14.832 C 65.3757 16.08 65.7717 17.484 65.7717 19.044 C 65.7717 20.724 65.3517 22.236 64.5117 23.58 C 63.6717 24.9 62.5557 25.944 61.1637 26.712 C 59.7717 27.456 58.1877 27.828 56.4117 27.828 L 48.9597 27.828 L 48.9597 36 L 42.8397 36 Z M 48.8517 22.464 L 55.3677 22.464 C 56.1117 22.464 56.7837 22.32 57.3837 22.032 C 57.9837 21.744 58.4637 21.348 58.8237 20.844 C 59.1837 20.34 59.3637 19.776 59.3637 19.152 C 59.3637 18.528 59.1837 18 58.8237 17.568 C 58.4637 17.136 57.9837 16.8 57.3837 16.56 C 56.7837 16.32 56.1117 16.2 55.3677 16.2 L 48.8517 16.2 L 48.8517 22.464 Z M 81.7414 36 L 81.7414 16.2 L 72.4534 16.2 L 72.4534 10.8 L 97.3654 10.8 L 97.3654 16.2 L 87.8614 16.2 L 87.8614 36 L 81.7414 36 Z M 105.884 36 L 105.884 30.672 L 111.932 30.672 L 111.932 16.128 L 105.884 16.128 L 105.884 10.8 L 124.172 10.8 L 124.172 16.128 L 118.052 16.128 L 118.052 30.672 L 124.172 30.672 L 124.172 36 L 105.884 36 Z M 147.879 36.36 C 145.767 36.36 143.811 36.048 142.011 35.424 C 140.211 34.8 138.627 33.912 137.259 32.76 C 135.915 31.584 134.871 30.204 134.127 28.62 C 133.383 27.012 133.011 25.236 133.011 23.292 C 133.011 21.396 133.395 19.656 134.163 18.072 C 134.931 16.488 135.987 15.108 137.331 13.932 C 138.675 12.756 140.247 11.856 142.047 11.232 C 143.871 10.608 145.827 10.296 147.915 10.296 C 149.403 10.296 150.831 10.476 152.199 10.836 C 153.591 11.172 154.875 11.64 156.051 12.24 C 157.251 12.816 158.259 13.476 159.075 14.22 L 155.511 18.936 C 154.887 18.384 154.191 17.88 153.423 17.424 C 152.655 16.968 151.791 16.608 150.831 16.344 C 149.871 16.08 148.791 15.948 147.591 15.948 C 146.535 15.948 145.515 16.116 144.531 16.452 C 143.571 16.764 142.683 17.232 141.867 17.856 C 141.075 18.48 140.451 19.26 139.995 20.196 C 139.539 21.132 139.311 22.188 139.311 23.364 C 139.311 24.54 139.551 25.596 140.031 26.532 C 140.511 27.468 141.171 28.248 142.011 28.872 C 142.851 29.496 143.811 29.976 144.891 30.312 C 145.995 30.624 147.147 30.78 148.347 30.78 C 149.547 30.78 150.627 30.624 151.587 30.312 C 152.547 29.976 153.399 29.568 154.143 29.088 C 154.911 28.584 155.583 28.116 156.159 27.684 L 159.039 32.4 C 158.367 33 157.455 33.612 156.303 34.236 C 155.151 34.836 153.855 35.34 152.415 35.748 C 150.975 36.156 149.463 36.36 147.879 36.36 Z M 163.868 36 L 175.676 10.8 L 181.292 10.8 L 193.028 36 L 186.728 36 L 180.032 21.672 C 179.816 21.144 179.588 20.628 179.348 20.124 C 179.132 19.62 178.928 19.128 178.736 18.648 C 178.568 18.168 178.4 17.688 178.232 17.208 C 178.064 16.704 177.908 16.212 177.764 15.732 L 179.06 15.696 C 178.892 16.224 178.724 16.74 178.556 17.244 C 178.388 17.748 178.196 18.24 177.98 18.72 C 177.788 19.2 177.584 19.692 177.368 20.196 C 177.152 20.676 176.924 21.18 176.684 21.708 L 170.024 36 L 163.868 36 Z M 169.376 31.428 L 171.356 26.82 L 185.468 26.82 L 186.584 31.428 L 169.376 31.428 Z M 52.0037 81.36 C 49.8677 81.36 47.8997 81.072 46.0997 80.496 C 44.3237 79.92 42.7757 79.08 41.4557 77.976 C 40.1357 76.872 39.1157 75.504 38.3957 73.872 C 37.6757 72.24 37.3157 70.38 37.3157 68.292 C 37.3157 66.42 37.6997 64.704 38.4677 63.144 C 39.2357 61.56 40.3037 60.18 41.6717 59.004 C 43.0637 57.828 44.6957 56.916 46.5677 56.268 C 48.4637 55.62 50.5157 55.296 52.7237 55.296 C 54.5237 55.296 56.1557 55.5 57.6197 55.908 C 59.1077 56.292 60.4277 56.796 61.5797 57.42 C 62.7317 58.044 63.6677 58.728 64.3877 59.472 L 60.6797 63.54 C 59.9837 62.988 59.2277 62.508 58.4117 62.1 C 57.6197 61.692 56.7437 61.356 55.7837 61.092 C 54.8237 60.828 53.7917 60.696 52.6877 60.696 C 51.4157 60.696 50.2277 60.888 49.1237 61.272 C 48.0437 61.656 47.0957 62.196 46.2797 62.892 C 45.4637 63.564 44.8277 64.368 44.3717 65.304 C 43.9397 66.216 43.7237 67.212 43.7237 68.292 C 43.7237 69.612 43.9637 70.764 44.4437 71.748 C 44.9237 72.708 45.5717 73.5 46.3877 74.124 C 47.2277 74.724 48.1757 75.18 49.2317 75.492 C 50.3117 75.804 51.4517 75.96 52.6517 75.96 C 53.7797 75.96 54.8237 75.84 55.7837 75.6 C 56.7677 75.36 57.6077 75.036 58.3037 74.628 C 58.9997 74.196 59.5397 73.692 59.9237 73.116 C 60.3317 72.516 60.5237 71.868 60.4997 71.172 L 60.4997 70.416 L 61.3277 71.856 L 52.1837 71.856 L 52.1837 67.104 L 66.3677 67.104 C 66.4157 67.44 66.4517 67.824 66.4757 68.256 C 66.4997 68.688 66.5117 69.084 66.5117 69.444 C 66.5117 69.78 66.5117 70.008 66.5117 70.128 C 66.5117 71.928 66.1637 73.536 65.4677 74.952 C 64.7717 76.344 63.7757 77.508 62.4797 78.444 C 61.2077 79.38 59.6717 80.1 57.8717 80.604 C 56.0957 81.108 54.1397 81.36 52.0037 81.36 Z M 87.7433 81.216 C 85.2233 81.216 83.0153 80.724 81.1193 79.74 C 79.2473 78.732 77.7833 77.352 76.7273 75.6 C 75.6713 73.848 75.1433 71.844 75.1433 69.588 L 75.1433 55.8 L 81.3353 55.8 L 81.3353 69.408 C 81.3353 70.656 81.6113 71.76 82.1633 72.72 C 82.7153 73.68 83.4713 74.436 84.4313 74.988 C 85.4153 75.516 86.5193 75.78 87.7433 75.78 C 89.0153 75.78 90.1433 75.516 91.1273 74.988 C 92.1353 74.436 92.9273 73.68 93.5033 72.72 C 94.0793 71.76 94.3673 70.656 94.3673 69.408 L 94.3673 55.8 L 100.343 55.8 L 100.343 69.588 C 100.343 71.844 99.8153 73.848 98.7593 75.6 C 97.7033 77.352 96.2273 78.732 94.3313 79.74 C 92.4353 80.724 90.2393 81.216 87.7433 81.216 Z M 111.193 81 L 111.193 75.672 L 117.241 75.672 L 117.241 61.128 L 111.193 61.128 L 111.193 55.8 L 129.481 55.8 L 129.481 61.128 L 123.361 61.128 L 123.361 75.672 L 129.481 75.672 L 129.481 81 L 111.193 81 Z M 140.539 81 L 140.539 55.8 L 146.299 55.8 L 163.111 73.8 L 162.211 73.62 C 162.067 72.732 161.947 71.892 161.851 71.1 C 161.779 70.284 161.719 69.504 161.671 68.76 C 161.623 68.016 161.575 67.284 161.527 66.564 C 161.503 65.844 161.491 65.112 161.491 64.368 C 161.491 63.6 161.491 62.82 161.491 62.028 L 161.491 55.8 L 167.431 55.8 L 167.431 81 L 161.599 81 L 144.211 62.424 L 145.759 62.676 C 145.855 63.252 145.927 63.816 145.975 64.368 C 146.047 64.92 146.119 65.496 146.191 66.096 C 146.263 66.672 146.323 67.284 146.371 67.932 C 146.419 68.58 146.443 69.288 146.443 70.056 C 146.467 70.824 146.479 71.664 146.479 72.576 L 146.479 81 L 140.539 81 Z M 174.45 81 L 186.258 55.8 L 191.874 55.8 L 203.61 81 L 197.31 81 L 190.614 66.672 C 190.398 66.144 190.17 65.628 189.93 65.124 C 189.714 64.62 189.51 64.128 189.318 63.648 C 189.15 63.168 188.982 62.688 188.814 62.208 C 188.646 61.704 188.49 61.212 188.346 60.732 L 189.642 60.696 C 189.474 61.224 189.306 61.74 189.138 62.244 C 188.97 62.748 188.778 63.24 188.562 63.72 C 188.37 64.2 188.166 64.692 187.95 65.196 C 187.734 65.676 187.506 66.18 187.266 66.708 L 180.606 81 L 174.45 81 Z M 179.958 76.428 L 181.938 71.82 L 196.05 71.82 L 197.166 76.428 L 179.958 76.428 Z M 210.641 81 L 210.641 55.8 L 224.357 55.8 C 226.253 55.8 227.885 56.136 229.253 56.808 C 230.645 57.48 231.713 58.416 232.457 59.616 C 233.225 60.816 233.609 62.22 233.609 63.828 C 233.609 65.46 233.201 66.912 232.385 68.184 C 231.569 69.456 230.453 70.464 229.037 71.208 C 227.645 71.928 226.085 72.288 224.357 72.288 L 216.473 72.288 L 216.473 81 L 210.641 81 Z M 227.885 81 L 219.929 69.624 L 226.301 68.724 L 234.977 81 L 227.885 81 Z M 216.473 67.608 L 223.709 67.608 C 224.381 67.608 225.005 67.464 225.581 67.176 C 226.157 66.888 226.613 66.48 226.949 65.952 C 227.285 65.424 227.453 64.836 227.453 64.188 C 227.453 63.516 227.273 62.94 226.913 62.46 C 226.577 61.956 226.109 61.572 225.509 61.308 C 224.909 61.044 224.237 60.912 223.492 60.912 L 216.473 60.912 L 216.473 67.608 Z M 250.21 81 L 250.21 61.2 L 240.922 61.2 L 240.922 55.8 L 265.834 55.8 L 265.834 61.2 L 256.33 61.2 L 256.33 81 L 250.21 81 Z" stroke-linecap="round" />
</g>
		<g transform="matrix(1 0 0 1 85.27 -18.21)"  >
<path style="stroke: rgb(33,112,34); stroke-width: 2; stroke-dasharray: none; stroke-linecap: butt; stroke-dashoffset: 0; stroke-linejoin: miter; stroke-miterlimit: 4; fill: none; fill-rule: nonzero; opacity: 1;" vector-effect="non-scaling-stroke"  transform=" translate(-220, -23.5)" d="M 232 23.5 C 232 25.0622 230.894 26.667 228.693 27.9371 C 226.518 29.1919 223.446 30 220 30 C 216.554 30 213.482 29.1919 211.307 27.9371 C 209.106 26.667 208 25.0622 208 23.5 C 208 21.9378 209.106 20.333 211.307 19.0629 C 213.482 17.8081 216.554 17 220 17 C 223.446 17 226.518 17.8081 228.693 19.0629 C 230.894 20.333 232 21.9378 232 23.5 Z" stroke-linecap="round" />
</g>
		<g transform="matrix(1 0 0 1 113.27 -18.21)"  >
<path style="stroke: rgb(33,112,34); stroke-width: 2; stroke-dasharray: none; stroke-linecap: butt; stroke-dashoffset: 0; stroke-linejoin: miter; stroke-miterlimit: 4; fill: none; fill-rule: nonzero; opacity: 1;" vector-effect="non-scaling-stroke"  transform=" translate(-248, -23.5)" d="M 260 23.5 C 260 25.0622 258.894 26.667 256.693 27.9371 C 254.518 29.1919 251.446 30 248 30 C 244.554 30 241.482 29.1919 239.307 27.9371 C 237.106 26.667 236 25.0622 236 23.5 C 236 21.9378 237.106 20.333 239.307 19.0629 C 241.482 17.8081 244.554 17 248 17 C 251.446 17 254.518 17.8081 256.693 19.0629 C 258.894 20.333 260 21.9378 260 23.5 Z" stroke-linecap="round" />
</g>
		<g transform="matrix(1 0 0 1 99.27 -17.71)"  >
<line style="stroke: rgb(33,112,34); stroke-width: 2; stroke-dasharray: none; stroke-linecap: butt; stroke-dashoffset: 0; stroke-linejoin: miter; stroke-miterlimit: 4; fill: none; fill-rule: nonzero; opacity: 1;" vector-effect="non-scaling-stroke"  x1="-1" y1="0" x2="1" y2="0" />
</g>
</g>
</g>
</svg>