<svg width="269" height="82" viewBox="0 0 269 82" fill="none" xmlns="http://www.w3.org/2000/svg">
<path d="M18.792 36.36C16.56 36.36 14.52 36.036 12.672 35.388C10.824 34.716 9.228 33.792 7.884 32.616C6.54 31.44 5.496 30.06 4.752 28.476C4.008 26.892 3.636 25.164 3.636 23.292C3.636 21.42 4.008 19.692 4.752 18.108C5.496 16.524 6.54 15.144 7.884 13.968C9.252 12.792 10.848 11.88 12.672 11.232C14.52 10.56 16.548 10.224 18.756 10.224C20.964 10.224 22.992 10.56 24.84 11.232C26.688 11.88 28.284 12.792 29.628 13.968C30.972 15.144 32.016 16.524 32.76 18.108C33.504 19.692 33.876 21.42 33.876 23.292C33.876 25.164 33.504 26.892 32.76 28.476C32.016 30.06 30.972 31.44 29.628 32.616C28.284 33.792 26.688 34.716 24.84 35.388C22.992 36.036 20.976 36.36 18.792 36.36ZM18.756 30.6C20.052 30.6 21.24 30.42 22.32 30.06C23.424 29.676 24.372 29.16 25.164 28.512C25.956 27.84 26.568 27.06 27 26.172C27.432 25.284 27.648 24.324 27.648 23.292C27.648 22.26 27.432 21.3 27 20.412C26.568 19.524 25.956 18.756 25.164 18.108C24.372 17.436 23.424 16.92 22.32 16.56C21.24 16.176 20.052 15.984 18.756 15.984C17.46 15.984 16.272 16.176 15.192 16.56C14.112 16.92 13.164 17.424 12.348 18.072C11.556 18.72 10.944 19.488 10.512 20.376C10.104 21.264 9.9 22.236 9.9 23.292C9.9 24.324 10.104 25.296 10.512 26.208C10.944 27.096 11.556 27.864 12.348 28.512C13.164 29.16 14.112 29.676 15.192 30.06C16.272 30.42 17.46 30.6 18.756 30.6ZM22.392 9.072L14.22 6.264L16.2 2.052L23.724 6.192L22.392 9.072ZM42.8397 36V10.8H56.9517C58.6077 10.8 60.0957 11.16 61.4157 11.88C62.7597 12.6 63.8157 13.584 64.5837 14.832C65.3757 16.08 65.7717 17.484 65.7717 19.044C65.7717 20.724 65.3517 22.236 64.5117 23.58C63.6717 24.9 62.5557 25.944 61.1637 26.712C59.7717 27.456 58.1877 27.828 56.4117 27.828H48.9597V36H42.8397ZM48.8517 22.464H55.3677C56.1117 22.464 56.7837 22.32 57.3837 22.032C57.9837 21.744 58.4637 21.348 58.8237 20.844C59.1837 20.34 59.3637 19.776 59.3637 19.152C59.3637 18.528 59.1837 18 58.8237 17.568C58.4637 17.136 57.9837 16.8 57.3837 16.56C56.7837 16.32 56.1117 16.2 55.3677 16.2H48.8517V22.464ZM81.7414 36V16.2H72.4534V10.8H97.3654V16.2H87.8614V36H81.7414ZM105.884 36V30.672H111.932V16.128H105.884V10.8H124.172V16.128H118.052V30.672H124.172V36H105.884ZM147.879 36.36C145.767 36.36 143.811 36.048 142.011 35.424C140.211 34.8 138.627 33.912 137.259 32.76C135.915 31.584 134.871 30.204 134.127 28.62C133.383 27.012 133.011 25.236 133.011 23.292C133.011 21.396 133.395 19.656 134.163 18.072C134.931 16.488 135.987 15.108 137.331 13.932C138.675 12.756 140.247 11.856 142.047 11.232C143.871 10.608 145.827 10.296 147.915 10.296C149.403 10.296 150.831 10.476 152.199 10.836C153.591 11.172 154.875 11.64 156.051 12.24C157.251 12.816 158.259 13.476 159.075 14.22L155.511 18.936C154.887 18.384 154.191 17.88 153.423 17.424C152.655 16.968 151.791 16.608 150.831 16.344C149.871 16.08 148.791 15.948 147.591 15.948C146.535 15.948 145.515 16.116 144.531 16.452C143.571 16.764 142.683 17.232 141.867 17.856C141.075 18.48 140.451 19.26 139.995 20.196C139.539 21.132 139.311 22.188 139.311 23.364C139.311 24.54 139.551 25.596 140.031 26.532C140.511 27.468 141.171 28.248 142.011 28.872C142.851 29.496 143.811 29.976 144.891 30.312C145.995 30.624 147.147 30.78 148.347 30.78C149.547 30.78 150.627 30.624 151.587 30.312C152.547 29.976 153.399 29.568 154.143 29.088C154.911 28.584 155.583 28.116 156.159 27.684L159.039 32.4C158.367 33 157.455 33.612 156.303 34.236C155.151 34.836 153.855 35.34 152.415 35.748C150.975 36.156 149.463 36.36 147.879 36.36ZM163.868 36L175.676 10.8H181.292L193.028 36H186.728L180.032 21.672C179.816 21.144 179.588 20.628 179.348 20.124C179.132 19.62 178.928 19.128 178.736 18.648C178.568 18.168 178.4 17.688 178.232 17.208C178.064 16.704 177.908 16.212 177.764 15.732L179.06 15.696C178.892 16.224 178.724 16.74 178.556 17.244C178.388 17.748 178.196 18.24 177.98 18.72C177.788 19.2 177.584 19.692 177.368 20.196C177.152 20.676 176.924 21.18 176.684 21.708L170.024 36H163.868ZM169.376 31.428L171.356 26.82H185.468L186.584 31.428H169.376ZM52.0037 81.36C49.8677 81.36 47.8997 81.072 46.0997 80.496C44.3237 79.92 42.7757 79.08 41.4557 77.976C40.1357 76.872 39.1157 75.504 38.3957 73.872C37.6757 72.24 37.3157 70.38 37.3157 68.292C37.3157 66.42 37.6997 64.704 38.4677 63.144C39.2357 61.56 40.3037 60.18 41.6717 59.004C43.0637 57.828 44.6957 56.916 46.5677 56.268C48.4637 55.62 50.5157 55.296 52.7237 55.296C54.5237 55.296 56.1557 55.5 57.6197 55.908C59.1077 56.292 60.4277 56.796 61.5797 57.42C62.7317 58.044 63.6677 58.728 64.3877 59.472L60.6797 63.54C59.9837 62.988 59.2277 62.508 58.4117 62.1C57.6197 61.692 56.7437 61.356 55.7837 61.092C54.8237 60.828 53.7917 60.696 52.6877 60.696C51.4157 60.696 50.2277 60.888 49.1237 61.272C48.0437 61.656 47.0957 62.196 46.2797 62.892C45.4637 63.564 44.8277 64.368 44.3717 65.304C43.9397 66.216 43.7237 67.212 43.7237 68.292C43.7237 69.612 43.9637 70.764 44.4437 71.748C44.9237 72.708 45.5717 73.5 46.3877 74.124C47.2277 74.724 48.1757 75.18 49.2317 75.492C50.3117 75.804 51.4517 75.96 52.6517 75.96C53.7797 75.96 54.8237 75.84 55.7837 75.6C56.7677 75.36 57.6077 75.036 58.3037 74.628C58.9997 74.196 59.5397 73.692 59.9237 73.116C60.3317 72.516 60.5237 71.868 60.4997 71.172V70.416L61.3277 71.856H52.1837V67.104H66.3677C66.4157 67.44 66.4517 67.824 66.4757 68.256C66.4997 68.688 66.5117 69.084 66.5117 69.444C66.5117 69.78 66.5117 70.008 66.5117 70.128C66.5117 71.928 66.1637 73.536 65.4677 74.952C64.7717 76.344 63.7757 77.508 62.4797 78.444C61.2077 79.38 59.6717 80.1 57.8717 80.604C56.0957 81.108 54.1397 81.36 52.0037 81.36ZM87.7433 81.216C85.2233 81.216 83.0153 80.724 81.1193 79.74C79.2473 78.732 77.7833 77.352 76.7273 75.6C75.6713 73.848 75.1433 71.844 75.1433 69.588V55.8H81.3353V69.408C81.3353 70.656 81.6113 71.76 82.1633 72.72C82.7153 73.68 83.4713 74.436 84.4313 74.988C85.4153 75.516 86.5193 75.78 87.7433 75.78C89.0153 75.78 90.1433 75.516 91.1273 74.988C92.1353 74.436 92.9273 73.68 93.5033 72.72C94.0793 71.76 94.3673 70.656 94.3673 69.408V55.8H100.343V69.588C100.343 71.844 99.8153 73.848 98.7593 75.6C97.7033 77.352 96.2273 78.732 94.3313 79.74C92.4353 80.724 90.2393 81.216 87.7433 81.216ZM111.193 81V75.672H117.241V61.128H111.193V55.8H129.481V61.128H123.361V75.672H129.481V81H111.193ZM140.539 81V55.8H146.299L163.111 73.8L162.211 73.62C162.067 72.732 161.947 71.892 161.851 71.1C161.779 70.284 161.719 69.504 161.671 68.76C161.623 68.016 161.575 67.284 161.527 66.564C161.503 65.844 161.491 65.112 161.491 64.368C161.491 63.6 161.491 62.82 161.491 62.028V55.8H167.431V81H161.599L144.211 62.424L145.759 62.676C145.855 63.252 145.927 63.816 145.975 64.368C146.047 64.92 146.119 65.496 146.191 66.096C146.263 66.672 146.323 67.284 146.371 67.932C146.419 68.58 146.443 69.288 146.443 70.056C146.467 70.824 146.479 71.664 146.479 72.576V81H140.539ZM174.45 81L186.258 55.8H191.874L203.61 81H197.31L190.614 66.672C190.398 66.144 190.17 65.628 189.93 65.124C189.714 64.62 189.51 64.128 189.318 63.648C189.15 63.168 188.982 62.688 188.814 62.208C188.646 61.704 188.49 61.212 188.346 60.732L189.642 60.696C189.474 61.224 189.306 61.74 189.138 62.244C188.97 62.748 188.778 63.24 188.562 63.72C188.37 64.2 188.166 64.692 187.95 65.196C187.734 65.676 187.506 66.18 187.266 66.708L180.606 81H174.45ZM179.958 76.428L181.938 71.82H196.05L197.166 76.428H179.958ZM210.641 81V55.8H224.357C226.253 55.8 227.885 56.136 229.253 56.808C230.645 57.48 231.713 58.416 232.457 59.616C233.225 60.816 233.609 62.22 233.609 63.828C233.609 65.46 233.201 66.912 232.385 68.184C231.569 69.456 230.453 70.464 229.037 71.208C227.645 71.928 226.085 72.288 224.357 72.288H216.473V81H210.641ZM227.885 81L219.929 69.624L226.301 68.724L234.977 81H227.885ZM216.473 67.608H223.709C224.381 67.608 225.005 67.464 225.581 67.176C226.157 66.888 226.613 66.48 226.949 65.952C227.285 65.424 227.453 64.836 227.453 64.188C227.453 63.516 227.273 62.94 226.913 62.46C226.577 61.956 226.109 61.572 225.509 61.308C224.909 61.044 224.237 60.912 223.492 60.912H216.473V67.608ZM250.21 81V61.2H240.922V55.8H265.834V61.2H256.33V81H250.21Z" fill="black"/>
<path d="M232 23.5C232 25.0622 230.894 26.667 228.693 27.9371C226.518 29.1919 223.446 30 220 30C216.554 30 213.482 29.1919 211.307 27.9371C209.106 26.667 208 25.0622 208 23.5C208 21.9378 209.106 20.333 211.307 19.0629C213.482 17.8081 216.554 17 220 17C223.446 17 226.518 17.8081 228.693 19.0629C230.894 20.333 232 21.9378 232 23.5Z" stroke="#217022" stroke-width="2"/>
<path d="M260 23.5C260 25.0622 258.894 26.667 256.693 27.9371C254.518 29.1919 251.446 30 248 30C244.554 30 241.482 29.1919 239.307 27.9371C237.106 26.667 236 25.0622 236 23.5C236 21.9378 237.106 20.333 239.307 19.0629C241.482 17.8081 244.554 17 248 17C251.446 17 254.518 17.8081 256.693 19.0629C258.894 20.333 260 21.9378 260 23.5Z" stroke="#217022" stroke-width="2"/>
<line x1="233" y1="24" x2="235" y2="24" stroke="#217022" stroke-width="2"/>
</svg>
