<svg width="54" height="15" viewBox="0 0 54 15" fill="none" xmlns="http://www.w3.org/2000/svg">
<path d="M25 7.5C25 9.06218 23.8942 10.667 21.6927 11.9371C19.5176 13.1919 16.4465 14 13 14C9.55352 14 6.48237 13.1919 4.30733 11.9371C2.10578 10.667 1 9.06218 1 7.5C1 5.93782 2.10578 4.33301 4.30733 3.06288C6.48237 1.80806 9.55352 1 13 1C16.4465 1 19.5176 1.80806 21.6927 3.06288C23.8942 4.33301 25 5.93782 25 7.5Z" stroke="#217022" stroke-width="2"/>
<path d="M53 7.5C53 9.06218 51.8942 10.667 49.6927 11.9371C47.5176 13.1919 44.4465 14 41 14C37.5535 14 34.4824 13.1919 32.3073 11.9371C30.1058 10.667 29 9.06218 29 7.5C29 5.93782 30.1058 4.33301 32.3073 3.06288C34.4824 1.80806 37.5535 1 41 1C44.4465 1 47.5176 1.80806 49.6927 3.06288C51.8942 4.33301 53 5.93782 53 7.5Z" stroke="#217022" stroke-width="2"/>
<line x1="25" y1="8" x2="29" y2="8" stroke="#217022" stroke-width="2"/>
</svg>
